# xmcd CD database file generated by Grip 3.0.3
# 
# Track frame offsets:
#       150
#       14563
#       33338
#       53500
#       66913
#       90213
#       107725
#       120563
#       135250
#       155538
# 
# Disc length: 2268 seconds
# 
# Revision: 4
# Processed by: cddbd v1.4PL0 Copyright (c) Steve Scherf et al.
# Submitted via: Grip 3.0.3
# 
DISCID=7308da0a
DTITLE=Roomful Of Blues - Dressed Up To Get Messud Up
DYEAR=1900
DGENRE=Blues
TTITLE0=Money Talks
TTITLE1=What Happened To The Sugar (In My Lemonade)?
TTITLE2=Let's Ride
TTITLE3=Yes Indeed!
TTITLE4=Albi's Boogie
TTITLE5=The Last Time
TTITLE6=Oh Oh
TTITLE7=Dressed Up To Get Messed Up
TTITLE8=He Knows The Rules
TTITLE9=Whiplash
EXTD=
EXTT0=
EXTT1=
EXTT2=
EXTT3=
EXTT4=
EXTT5=
EXTT6=
EXTT7=
EXTT8=
EXTT9=
PLAYORDER=
